<svg width="192" height="230" viewBox="0 0 192 230" fill="none" xmlns="http://www.w3.org/2000/svg">
<mask id="mask0_70_16" style="mask-type:luminance" maskUnits="userSpaceOnUse" x="0" y="0" width="192" height="230">
<path d="M0.255981 0.311996H191.744V229.688H0.255981V0.311996Z" fill="white"/>
</mask>
<g mask="url(#mask0_70_16)">
<mask id="mask1_70_16" style="mask-type:luminance" maskUnits="userSpaceOnUse" x="0" y="0" width="192" height="230">
<path d="M96 0.311996C79.952 0.311996 64.83 4.27 51.548 11.256C27.807 23.741 9.95698 45.911 3.25298 72.517C1.36298 80.018 0.35498 87.869 0.35498 95.956C0.35498 115.934 6.48398 134.479 16.96 149.819C19.219 153.126 21.679 156.285 24.325 159.278C35.349 152.192 48.744 144.97 64.537 138.959C75.317 135.308 86.605 131.891 86.605 131.891C90.078 131.084 94.529 129.776 99.453 127.6C105.784 124.805 111.475 122.291 116.541 116.528C119.05 113.674 125.166 106.716 124.703 96.77C124.38 89.876 121.055 84.894 119.404 82.736C120.627 85.002 123.845 91.671 122.458 100.206C121.815 104.166 120.348 107.492 118.6 110.218C120.192 105.876 120.374 100.999 119.227 95.902C117.158 86.704 107.379 78.372 99.333 79.316C97.725 79.503 95.812 80.094 94.709 80.891C93.478 79.319 92.572 77.504 92.087 75.53C90.304 68.283 95.124 62.668 95.57 62.167C88.675 68.823 88.192 78.753 92.993 84.216C95.473 87.04 98.86 88.097 101.688 88.443C99.656 88.837 97.234 89.316 94.491 89.863C90.617 90.636 88.66 91.054 87.682 92.541C85.945 95.186 87.905 99.215 88.49 100.336C85.293 100.149 81.73 100.006 78.179 99.714C75.092 99.461 72.754 99.881 73.839 103.887C70.852 103.68 68.252 103.416 65.647 103.334C59.582 103.145 54.82 105.707 51.257 110.52C49.092 113.444 48.556 116.114 49.551 118.226C46.777 117.161 44.724 115.404 43.93 113.172C43.215 111.163 43.654 109.145 43.93 107.881C44.945 103.221 48.044 100.367 49.391 99.266C43.55 103.593 40.719 109.729 42.297 114.468C43.525 118.154 47.097 120.023 49.391 121.223C54.373 123.829 59.352 123.888 62.634 123.517C62.65 123.568 62.648 123.558 62.664 123.609C54.28 128.43 37.808 125.601 30.596 117.808C30.311 117.501 28.907 116.083 26.605 115.189C24.911 114.534 23.286 114.391 21.969 114.432C22.368 112.878 23.028 112.148 23.688 111.803C24.797 111.224 26.193 111.582 26.552 110.802C26.801 110.256 26.27 109.77 26.05 108.725C25.785 107.466 26.164 106.322 26.527 105.551C25.51 106.191 23.399 107.717 21.946 110.515C21.232 111.89 20.871 113.2 20.688 114.273C20.416 112.765 20.229 110.858 20.395 108.667C20.721 104.363 22.247 101.089 23.323 99.21C27.621 97.889 30.904 96.353 33.156 95.155C34.314 94.538 35.401 93.9 36.674 92.938C39.807 90.562 41.751 87.772 42.945 85.598C45.454 84.772 47.468 83.824 48.959 83.023C51.131 81.858 53.406 80.619 55.689 78.156C57.975 75.689 59.198 73.19 59.841 71.57C55.708 74.903 51.134 78.282 46.096 81.592C44.72 82.496 43.356 83.364 42.005 84.198C41.913 84.114 41.821 84.027 41.731 83.929C41.176 83.335 41.521 82.762 40.34 81.218C39.197 79.726 38.877 78.131 39.709 76.4C41.341 73.006 44.979 70.448 47.838 68.155C55.273 62.19 61.692 54.717 65.4 45.847C66.575 43.036 67.593 40.053 68.078 37.04C68.142 36.638 68.193 36.236 68.24 35.835C68.24 35.835 68.873 30.651 68.478 25.451C67.874 17.479 64.967 11.451 65.438 11.261C66.036 11.023 71.026 20.623 71.519 27.476C71.724 30.331 71.669 33.7 71.669 33.7C71.64 35.499 71.552 36.994 71.476 38.039C71.614 38.282 71.679 38.589 71.631 38.963C71.351 41.167 71.002 43.346 70.553 45.486C72.439 48.898 68.735 54.341 66.958 57.031C66.788 57.287 66.615 57.543 66.438 57.802C66.461 57.787 66.484 57.774 66.507 57.761C74.113 50.616 76.887 44.065 77.937 39.132C78.992 34.183 78.632 29.365 79.289 29.335C80.08 29.299 81.938 36.236 80.809 43.356C80.247 46.901 79.033 49.912 77.695 52.347C83.015 50.237 88.555 48.635 94.165 47.516C99.671 46.42 110.1 45.737 121.812 48.988C140.931 54.297 152.1 67.502 155.976 72.576C154.117 71.355 151.864 70.054 149.217 68.861C146.168 67.484 143.342 66.588 140.941 65.989C145.029 69.048 150.479 73.84 155.469 80.855C161.723 89.646 164.57 98.145 165.942 103.657C164.191 101.35 162.173 98.9 159.859 96.394C157.722 94.077 155.617 92.019 153.61 90.201C156.383 95.856 160.527 106.516 159.127 119.703C158.7 123.742 157.824 127.311 156.82 130.345C156.58 127.877 155.955 124.459 154.286 120.716C153.265 118.428 152.092 116.554 151.02 115.087C151.654 120.11 152.75 134.274 144.038 147.517C140.9 152.289 137.293 155.719 134.241 158.103C134.82 155.566 135.332 152.78 135.706 149.77C135.946 147.824 136.11 145.963 136.212 144.197C133.443 149.445 129.032 156.464 122.191 163.507C115.082 170.831 107.901 175.552 102.6 178.485C104.005 176.166 106.007 172.162 106.652 166.83C107.044 163.599 106.824 160.811 106.483 158.722C105.016 162.483 100.641 172.183 90.099 178.823C84.085 182.612 78.291 184.002 74.561 184.565C76.371 183.029 78.835 180.475 80.64 176.683C82.321 173.153 82.771 169.935 82.892 167.9C79.218 169.088 73.997 171.187 68.478 174.994C67.482 175.682 66.674 176.253 66.54 176.353C61.032 180.421 57.968 184.427 57.986 184.443C58.005 184.46 61.548 179.492 67.865 174.42C69.388 173.196 72.717 170.647 80.966 166.402C93.25 160.079 107.556 154.752 110.126 153.61C115.254 151.337 117.819 150.197 118.909 149.601C121.915 147.957 134.2 141.115 142.008 128.03C150.492 113.81 153.864 92.521 143.918 74.767C138.614 65.3 131.174 59.783 126.735 57.011C130.522 59.883 137.303 65.843 142.008 75.719C148.083 88.471 147.087 100.165 146.399 104.929C145.866 108.628 144.358 118.238 137.236 127.457C132.897 133.074 128.297 136.179 124.257 138.91C115.238 145.001 104.776 148.226 94.653 151.895C79.914 157.235 63.619 163.888 52.664 175.564C49.536 179.323 40.93 189.662 41.305 204.774C41.621 217.523 48.151 226.473 50.755 229.688C49.107 226.155 46.047 218.322 47.032 208.21C47.066 207.864 47.104 207.521 47.146 207.18C48.723 194.391 61.17 185.989 73.702 188.987C80.856 190.694 88.322 191.603 96 191.603C107.799 191.603 119.099 189.46 129.533 185.551C165.816 171.965 191.644 136.98 191.644 95.956C191.644 43.133 148.823 0.311996 96 0.311996Z" fill="white"/>
</mask>
<g mask="url(#mask1_70_16)">
<mask id="mask2_70_16" style="mask-type:luminance" maskUnits="userSpaceOnUse" x="0" y="0" width="192" height="230">
<path d="M96 0.311996C79.952 0.311996 64.83 4.27 51.548 11.256C27.807 23.741 9.95698 45.911 3.25298 72.517C1.36298 80.018 0.35498 87.869 0.35498 95.956C0.35498 115.934 6.48398 134.479 16.96 149.819C19.219 153.126 21.679 156.285 24.325 159.278C35.349 152.192 48.744 144.97 64.537 138.959C75.317 135.308 86.605 131.891 86.605 131.891C90.078 131.084 94.529 129.776 99.453 127.6C105.784 124.805 111.475 122.291 116.541 116.528C119.05 113.674 125.166 106.716 124.703 96.77C124.38 89.876 121.055 84.894 119.404 82.736C120.627 85.002 123.845 91.671 122.458 100.206C121.815 104.166 120.348 107.492 118.6 110.218C120.192 105.876 120.374 100.999 119.227 95.902C117.158 86.704 107.379 78.372 99.333 79.316C97.725 79.503 95.812 80.094 94.709 80.891C93.478 79.319 92.572 77.504 92.087 75.53C90.304 68.283 95.124 62.668 95.57 62.167C88.675 68.823 88.192 78.753 92.993 84.216C95.473 87.04 98.86 88.097 101.688 88.443C99.656 88.837 97.234 89.316 94.491 89.863C90.617 90.636 88.66 91.054 87.682 92.541C85.945 95.186 87.905 99.215 88.49 100.336C85.293 100.149 81.73 100.006 78.179 99.714C75.092 99.461 72.754 99.881 73.839 103.887C70.852 103.68 68.252 103.416 65.647 103.334C59.582 103.145 54.82 105.707 51.257 110.52C49.092 113.444 48.556 116.114 49.551 118.226C46.777 117.161 44.724 115.404 43.93 113.172C43.215 111.163 43.654 109.145 43.93 107.881C44.945 103.221 48.044 100.367 49.391 99.266C43.55 103.593 40.719 109.729 42.297 114.468C43.525 118.154 47.097 120.023 49.391 121.223C54.373 123.829 59.352 123.888 62.634 123.517C62.65 123.568 62.648 123.558 62.664 123.609C54.28 128.43 37.808 125.601 30.596 117.808C30.311 117.501 28.907 116.083 26.605 115.189C24.911 114.534 23.286 114.391 21.969 114.432C22.368 112.878 23.028 112.148 23.688 111.803C24.797 111.224 26.193 111.582 26.552 110.802C26.801 110.256 26.27 109.77 26.05 108.725C25.785 107.466 26.164 106.322 26.527 105.551C25.51 106.191 23.399 107.717 21.946 110.515C21.232 111.89 20.871 113.2 20.688 114.273C20.416 112.765 20.229 110.858 20.395 108.667C20.721 104.363 22.247 101.089 23.323 99.21C27.621 97.889 30.904 96.353 33.156 95.155C34.314 94.538 35.401 93.9 36.674 92.938C39.807 90.562 41.751 87.772 42.945 85.598C45.454 84.772 47.468 83.824 48.959 83.023C51.131 81.858 53.406 80.619 55.689 78.156C57.975 75.689 59.198 73.19 59.841 71.57C55.708 74.903 51.134 78.282 46.096 81.592C44.72 82.496 43.356 83.364 42.005 84.198C41.913 84.114 41.821 84.027 41.731 83.929C41.176 83.335 41.521 82.762 40.34 81.218C39.197 79.726 38.877 78.131 39.709 76.4C41.341 73.006 44.979 70.448 47.838 68.155C55.273 62.19 61.692 54.717 65.4 45.847C66.575 43.036 67.593 40.053 68.078 37.04C68.142 36.638 68.193 36.236 68.24 35.835C68.24 35.835 68.873 30.651 68.478 25.451C67.874 17.479 64.967 11.451 65.438 11.261C66.036 11.023 71.026 20.623 71.519 27.476C71.724 30.331 71.669 33.7 71.669 33.7C71.64 35.499 71.552 36.994 71.476 38.039C71.614 38.282 71.679 38.589 71.631 38.963C71.351 41.167 71.002 43.346 70.553 45.486C72.439 48.898 68.735 54.341 66.958 57.031C66.788 57.287 66.615 57.543 66.438 57.802C66.461 57.787 66.484 57.774 66.507 57.761C74.113 50.616 76.887 44.065 77.937 39.132C78.992 34.183 78.632 29.365 79.289 29.335C80.08 29.299 81.938 36.236 80.809 43.356C80.247 46.901 79.033 49.912 77.695 52.347C83.015 50.237 88.555 48.635 94.165 47.516C99.671 46.42 110.1 45.737 121.812 48.988C140.931 54.297 152.1 67.502 155.976 72.576C154.117 71.355 151.864 70.054 149.217 68.861C146.168 67.484 143.342 66.588 140.941 65.989C145.029 69.048 150.479 73.84 155.469 80.855C161.723 89.646 164.57 98.145 165.942 103.657C164.191 101.35 162.173 98.9 159.859 96.394C157.722 94.077 155.617 92.019 153.61 90.201C156.383 95.856 160.527 106.516 159.127 119.703C158.7 123.742 157.824 127.311 156.82 130.345C156.58 127.877 155.955 124.459 154.286 120.716C153.265 118.428 152.092 116.554 151.02 115.087C151.654 120.11 152.75 134.274 144.038 147.517C140.9 152.289 137.293 155.719 134.241 158.103C134.82 155.566 135.332 152.78 135.706 149.77C135.946 147.824 136.11 145.963 136.212 144.197C133.443 149.445 129.032 156.464 122.191 163.507C115.082 170.831 107.901 175.552 102.6 178.485C104.005 176.166 106.007 172.162 106.652 166.83C107.044 163.599 106.824 160.811 106.483 158.722C105.016 162.483 100.641 172.183 90.099 178.823C84.085 182.612 78.291 184.002 74.561 184.565C76.371 183.029 78.835 180.475 80.64 176.683C82.321 173.153 82.771 169.935 82.892 167.9C79.218 169.088 73.997 171.187 68.478 174.994C67.482 175.682 66.674 176.253 66.54 176.353C61.032 180.421 57.968 184.427 57.986 184.443C58.005 184.46 61.548 179.492 67.865 174.42C69.388 173.196 72.717 170.647 80.966 166.402C93.25 160.079 107.556 154.752 110.126 153.61C115.254 151.337 117.819 150.197 118.909 149.601C121.915 147.957 134.2 141.115 142.008 128.03C150.492 113.81 153.864 92.521 143.918 74.767C138.614 65.3 131.174 59.783 126.735 57.011C130.522 59.883 137.303 65.843 142.008 75.719C148.083 88.471 147.087 100.165 146.399 104.929C145.866 108.628 144.358 118.238 137.236 127.457C132.897 133.074 128.297 136.179 124.257 138.91C115.238 145.001 104.776 148.226 94.653 151.895C79.914 157.235 63.619 163.888 52.664 175.564C49.536 179.323 40.93 189.662 41.305 204.774C41.621 217.523 48.151 226.473 50.755 229.688C49.107 226.155 46.047 218.322 47.032 208.21C47.066 207.864 47.104 207.521 47.146 207.18C48.723 194.391 61.17 185.989 73.702 188.987C80.856 190.694 88.322 191.603 96 191.603C107.799 191.603 119.099 189.46 129.533 185.551C165.816 171.965 191.644 136.98 191.644 95.956C191.644 43.133 148.823 0.311996 96 0.311996Z" fill="white"/>
</mask>
<g mask="url(#mask2_70_16)">
<path d="M298.395 73.077L61.038 -88.714L-106.396 156.923L130.961 318.714L298.395 73.077Z" fill="url(#paint0_linear_70_16)"/>
</g>
</g>
</g>
<defs>
<linearGradient id="paint0_linear_70_16" x1="170.856" y1="-13.8579" x2="3.42201" y2="231.778" gradientUnits="userSpaceOnUse">
<stop stop-color="#D51E27"/>
<stop offset="0.25" stop-color="#D51E27"/>
<stop offset="0.28125" stop-color="#D51E27"/>
<stop offset="0.296875" stop-color="#D51E27"/>
<stop offset="0.300781" stop-color="#D31F27"/>
<stop offset="0.304688" stop-color="#D21F27"/>
<stop offset="0.308594" stop-color="#D11F27"/>
<stop offset="0.3125" stop-color="#D01F27"/>
<stop offset="0.316406" stop-color="#CF1F27"/>
<stop offset="0.320312" stop-color="#CE2027"/>
<stop offset="0.324219" stop-color="#CD2027"/>
<stop offset="0.328125" stop-color="#CC2027"/>
<stop offset="0.332031" stop-color="#CB2027"/>
<stop offset="0.335938" stop-color="#CA2027"/>
<stop offset="0.339844" stop-color="#C92027"/>
<stop offset="0.34375" stop-color="#C82127"/>
<stop offset="0.347656" stop-color="#C72127"/>
<stop offset="0.351563" stop-color="#C62127"/>
<stop offset="0.355469" stop-color="#C52127"/>
<stop offset="0.359375" stop-color="#C42127"/>
<stop offset="0.363281" stop-color="#C32127"/>
<stop offset="0.367188" stop-color="#C22227"/>
<stop offset="0.371094" stop-color="#C12227"/>
<stop offset="0.375" stop-color="#C02227"/>
<stop offset="0.378906" stop-color="#BF2227"/>
<stop offset="0.382813" stop-color="#BE2227"/>
<stop offset="0.386719" stop-color="#BD2227"/>
<stop offset="0.390625" stop-color="#BC2227"/>
<stop offset="0.394531" stop-color="#BB2227"/>
<stop offset="0.398438" stop-color="#BA2327"/>
<stop offset="0.402344" stop-color="#B92327"/>
<stop offset="0.40625" stop-color="#B82327"/>
<stop offset="0.410156" stop-color="#B72327"/>
<stop offset="0.414062" stop-color="#B62327"/>
<stop offset="0.417969" stop-color="#B52327"/>
<stop offset="0.421875" stop-color="#B42327"/>
<stop offset="0.425781" stop-color="#B32427"/>
<stop offset="0.429688" stop-color="#B22427"/>
<stop offset="0.433594" stop-color="#B12427"/>
<stop offset="0.4375" stop-color="#B02427"/>
<stop offset="0.441406" stop-color="#AF2427"/>
<stop offset="0.445312" stop-color="#AF2427"/>
<stop offset="0.449219" stop-color="#AE2427"/>
<stop offset="0.453125" stop-color="#AD2427"/>
<stop offset="0.457031" stop-color="#AC2427"/>
<stop offset="0.460938" stop-color="#AB2427"/>
<stop offset="0.464844" stop-color="#AA2527"/>
<stop offset="0.46875" stop-color="#A92527"/>
<stop offset="0.472656" stop-color="#A82527"/>
<stop offset="0.476562" stop-color="#A72527"/>
<stop offset="0.480469" stop-color="#A62527"/>
<stop offset="0.484375" stop-color="#A52527"/>
<stop offset="0.488281" stop-color="#A42527"/>
<stop offset="0.492188" stop-color="#A32527"/>
<stop offset="0.496094" stop-color="#A22527"/>
<stop offset="0.5" stop-color="#A12527"/>
<stop offset="0.503906" stop-color="#A02527"/>
<stop offset="0.507812" stop-color="#9F2627"/>
<stop offset="0.511719" stop-color="#9F2627"/>
<stop offset="0.515625" stop-color="#9E2627"/>
<stop offset="0.519531" stop-color="#9D2627"/>
<stop offset="0.523438" stop-color="#9C2627"/>
<stop offset="0.527344" stop-color="#9B2627"/>
<stop offset="0.53125" stop-color="#9A2627"/>
<stop offset="0.535156" stop-color="#992627"/>
<stop offset="0.539062" stop-color="#982627"/>
<stop offset="0.542969" stop-color="#972627"/>
<stop offset="0.546875" stop-color="#962627"/>
<stop offset="0.550781" stop-color="#952627"/>
<stop offset="0.554688" stop-color="#942627"/>
<stop offset="0.558594" stop-color="#942627"/>
<stop offset="0.5625" stop-color="#932627"/>
<stop offset="0.566406" stop-color="#922727"/>
<stop offset="0.570312" stop-color="#912727"/>
<stop offset="0.574219" stop-color="#902727"/>
<stop offset="0.578125" stop-color="#8F2727"/>
<stop offset="0.582031" stop-color="#8E2727"/>
<stop offset="0.585938" stop-color="#8D2727"/>
<stop offset="0.589844" stop-color="#8C2727"/>
<stop offset="0.59375" stop-color="#8C2727"/>
<stop offset="0.597656" stop-color="#8B2727"/>
<stop offset="0.601563" stop-color="#8A2727"/>
<stop offset="0.605469" stop-color="#892727"/>
<stop offset="0.609375" stop-color="#882727"/>
<stop offset="0.613281" stop-color="#872727"/>
<stop offset="0.617187" stop-color="#862727"/>
<stop offset="0.621094" stop-color="#862727"/>
<stop offset="0.625" stop-color="#852727"/>
<stop offset="0.628906" stop-color="#842727"/>
<stop offset="0.632812" stop-color="#832727"/>
<stop offset="0.636719" stop-color="#822727"/>
<stop offset="0.640625" stop-color="#812727"/>
<stop offset="0.644531" stop-color="#802727"/>
<stop offset="0.648438" stop-color="#802727"/>
<stop offset="0.652344" stop-color="#7F2727"/>
<stop offset="0.65625" stop-color="#7E2727"/>
<stop offset="0.660156" stop-color="#7D2727"/>
<stop offset="0.664063" stop-color="#7C2726"/>
<stop offset="0.667969" stop-color="#7B2726"/>
<stop offset="0.671875" stop-color="#7A2726"/>
<stop offset="0.675781" stop-color="#7A2726"/>
<stop offset="0.679688" stop-color="#792726"/>
<stop offset="0.683594" stop-color="#782726"/>
<stop offset="0.6875" stop-color="#772726"/>
<stop offset="0.691406" stop-color="#762726"/>
<stop offset="0.695312" stop-color="#762726"/>
<stop offset="0.699219" stop-color="#752726"/>
<stop offset="0.703125" stop-color="#742726"/>
<stop offset="0.707031" stop-color="#732726"/>
<stop offset="0.710938" stop-color="#722726"/>
<stop offset="0.714844" stop-color="#712726"/>
<stop offset="0.71875" stop-color="#712726"/>
<stop offset="0.722656" stop-color="#702726"/>
<stop offset="0.726563" stop-color="#6F2726"/>
<stop offset="0.730469" stop-color="#6E2726"/>
<stop offset="0.734375" stop-color="#6D2726"/>
<stop offset="0.738281" stop-color="#6D2726"/>
<stop offset="0.742188" stop-color="#6C2726"/>
<stop offset="0.746094" stop-color="#6B2726"/>
<stop offset="0.75" stop-color="#6A2725"/>
<stop offset="0.753906" stop-color="#692725"/>
<stop offset="0.757813" stop-color="#692725"/>
<stop offset="0.761719" stop-color="#682725"/>
<stop offset="0.765625" stop-color="#672725"/>
<stop offset="0.769531" stop-color="#662725"/>
<stop offset="0.773438" stop-color="#662725"/>
<stop offset="0.777344" stop-color="#652725"/>
<stop offset="0.78125" stop-color="#642725"/>
<stop offset="0.785156" stop-color="#632725"/>
<stop offset="0.789062" stop-color="#622725"/>
<stop offset="0.792969" stop-color="#622725"/>
<stop offset="0.796875" stop-color="#612625"/>
<stop offset="0.800781" stop-color="#602625"/>
<stop offset="0.804688" stop-color="#5F2625"/>
<stop offset="0.808594" stop-color="#5F2625"/>
<stop offset="0.8125" stop-color="#5E2624"/>
<stop offset="0.816406" stop-color="#5D2624"/>
<stop offset="0.820312" stop-color="#5C2624"/>
<stop offset="0.824219" stop-color="#5C2624"/>
<stop offset="0.828125" stop-color="#5B2624"/>
<stop offset="0.832031" stop-color="#5A2624"/>
<stop offset="0.835938" stop-color="#592624"/>
<stop offset="0.839844" stop-color="#592624"/>
<stop offset="0.84375" stop-color="#582624"/>
<stop offset="0.847656" stop-color="#572624"/>
<stop offset="0.851562" stop-color="#572624"/>
<stop offset="0.855469" stop-color="#562624"/>
<stop offset="0.859375" stop-color="#552524"/>
<stop offset="0.863281" stop-color="#542523"/>
<stop offset="0.867188" stop-color="#542523"/>
<stop offset="0.871094" stop-color="#532523"/>
<stop offset="0.875" stop-color="#522523"/>
<stop offset="0.878906" stop-color="#522523"/>
<stop offset="0.882812" stop-color="#512523"/>
<stop offset="0.886719" stop-color="#502523"/>
<stop offset="0.890625" stop-color="#4F2523"/>
<stop offset="0.894531" stop-color="#4F2523"/>
<stop offset="0.898438" stop-color="#4E2523"/>
<stop offset="0.902344" stop-color="#4D2423"/>
<stop offset="0.90625" stop-color="#4D2422"/>
<stop offset="0.910156" stop-color="#4C2422"/>
<stop offset="0.914063" stop-color="#4B2422"/>
<stop offset="0.917969" stop-color="#4B2422"/>
<stop offset="0.921875" stop-color="#4A2422"/>
<stop offset="0.925781" stop-color="#492422"/>
<stop offset="0.929687" stop-color="#492422"/>
<stop offset="0.933594" stop-color="#482422"/>
<stop offset="0.9375" stop-color="#472422"/>
<stop offset="0.941406" stop-color="#472321"/>
<stop offset="0.945312" stop-color="#462321"/>
<stop offset="0.949219" stop-color="#452321"/>
<stop offset="0.953125" stop-color="#452321"/>
<stop offset="0.957031" stop-color="#442321"/>
<stop offset="0.960938" stop-color="#432321"/>
<stop offset="0.964844" stop-color="#432321"/>
<stop offset="0.96875" stop-color="#422321"/>
<stop offset="0.972656" stop-color="#412321"/>
<stop offset="0.976562" stop-color="#412220"/>
<stop offset="0.980469" stop-color="#402220"/>
<stop offset="0.984375" stop-color="#3F2220"/>
<stop offset="0.988281" stop-color="#3F2220"/>
<stop offset="0.992188" stop-color="#3E2220"/>
<stop offset="0.996094" stop-color="#3D2220"/>
<stop offset="1" stop-color="#3D2220"/>
</linearGradient>
</defs>
</svg>
